HIERARCHY
ROOT mixamorig:Hips
{
	OFFSET -0.000008 104.274872 1.554316
	CHANNELS 6 Xposition Yposition Zposition Xrotation Yrotation Zrotation
	JOINT mixamorig:Spine
	{
		OFFSET -0.000005 10.181595 0.131519
		CHANNELS 6 Xposition Yposition Zposition Xrotation Yrotation Zrotation
		JOINT mixamorig:Spine1
		{
			OFFSET -0.000000 9.893959 -1.470707
			CHANNELS 6 Xposition Yposition Zposition Xrotation Yrotation Zrotation
			JOINT mixamorig:Spine2
			{
				OFFSET -0.000000 9.220757 -1.370641
				CHANNELS 6 Xposition Yposition Zposition Xrotation Yrotation Zrotation
				JOINT mixamorig:Neck
				{
					OFFSET 0.000001 16.740417 -2.049036
					CHANNELS 6 Xposition Yposition Zposition Xrotation Yrotation Zrotation
					JOINT mixamorig:Head
					{
						OFFSET 0.000000 9.617874 1.685006
						CHANNELS 6 Xposition Yposition Zposition Xrotation Yrotation Zrotation
						JOINT mixamorig:HeadTop_End
						{
							OFFSET 0.000002 22.037354 7.501101
							CHANNELS 6 Xposition Yposition Zposition Xrotation Yrotation Zrotation
							End Site
							{
								OFFSET 0.000168 2310.654297 -282.823242
							}
						}
					}
				}
				JOINT mixamorig:RightShoulder
				{
					OFFSET -4.569970 11.014908 -2.160885
					CHANNELS 6 Xposition Yposition Zposition Xrotation Yrotation Zrotation
					JOINT mixamorig:RightArm
					{
						OFFSET -10.592851 -0.524811 -2.232101
						CHANNELS 6 Xposition Yposition Zposition Xrotation Yrotation Zrotation
						JOINT mixamorig:RightForeArm
						{
							OFFSET -27.841511 0.000031 -0.000004
							CHANNELS 6 Xposition Yposition Zposition Xrotation Yrotation Zrotation
							JOINT mixamorig:RightHand
							{
								OFFSET -28.328831 -0.000015 0.000015
								CHANNELS 6 Xposition Yposition Zposition Xrotation Yrotation Zrotation
								JOINT mixamorig:RightHandThumb1
								{
									OFFSET -2.464806 -1.573990 2.681852
									CHANNELS 6 Xposition Yposition Zposition Xrotation Yrotation Zrotation
									JOINT mixamorig:RightHandThumb2
									{
										OFFSET -3.215179 -1.872803 1.924282
										CHANNELS 6 Xposition Yposition Zposition Xrotation Yrotation Zrotation
										JOINT mixamorig:RightHandThumb3
										{
											OFFSET -2.654831 -1.527969 1.512609
											CHANNELS 6 Xposition Yposition Zposition Xrotation Yrotation Zrotation
											JOINT mixamorig:RightHandThumb4
											{
												OFFSET -2.018814 -1.152008 1.108052
												CHANNELS 6 Xposition Yposition Zposition Xrotation Yrotation Zrotation
												End Site
												{
													OFFSET -188.809540 -114.533607 132.431396
												}
											}
										}
									}
								}
								JOINT mixamorig:RightHandIndex1
								{
									OFFSET -9.108284 -0.517868 2.259835
									CHANNELS 6 Xposition Yposition Zposition Xrotation Yrotation Zrotation
									JOINT mixamorig:RightHandIndex2
									{
										OFFSET -3.699989 0.000000 0.001215
										CHANNELS 6 Xposition Yposition Zposition Xrotation Yrotation Zrotation
										JOINT mixamorig:RightHandIndex3
										{
											OFFSET -2.850006 0.000031 -0.000522
											CHANNELS 6 Xposition Yposition Zposition Xrotation Yrotation Zrotation
											JOINT mixamorig:RightHandIndex4
											{
												OFFSET -2.772186 -0.000015 -0.000020
												CHANNELS 6 Xposition Yposition Zposition Xrotation Yrotation Zrotation
												End Site
												{
													OFFSET -277.218445 0.000000 -0.050231
												}
											}
										}
									}
								}
								JOINT mixamorig:RightHandMiddle1
								{
									OFFSET -9.532516 -0.000031 -0.000023
									CHANNELS 6 Xposition Yposition Zposition Xrotation Yrotation Zrotation
									JOINT mixamorig:RightHandMiddle2
									{
										OFFSET -3.700005 -0.000015 0.003713
										CHANNELS 6 Xposition Yposition Zposition Xrotation Yrotation Zrotation
										JOINT mixamorig:RightHandMiddle3
										{
											OFFSET -2.949974 0.000015 -0.002054
											CHANNELS 6 Xposition Yposition Zposition Xrotation Yrotation Zrotation
											JOINT mixamorig:RightHandMiddle4
											{
												OFFSET -2.946640 0.000000 -0.000156
												CHANNELS 6 Xposition Yposition Zposition Xrotation Yrotation Zrotation
												End Site
												{
													OFFSET -294.664337 0.000000 -0.113670
												}
											}
										}
									}
								}
								JOINT mixamorig:RightHandRing1
								{
									OFFSET -9.103600 -0.043076 -1.865134
									CHANNELS 6 Xposition Yposition Zposition Xrotation Yrotation Zrotation
									JOINT mixamorig:RightHandRing2
									{
										OFFSET -3.379288 0.000000 -0.001055
										CHANNELS 6 Xposition Yposition Zposition Xrotation Yrotation Zrotation
										JOINT mixamorig:RightHandRing3
										{
											OFFSET -2.889687 -0.000015 0.000379
											CHANNELS 6 Xposition Yposition Zposition Xrotation Yrotation Zrotation
											JOINT mixamorig:RightHandRing4
											{
												OFFSET -2.638809 -0.000015 0.000941
												CHANNELS 6 Xposition Yposition Zposition Xrotation Yrotation Zrotation
												End Site
												{
													OFFSET -263.880371 0.000000 0.516020
												}
											}
										}
									}
								}
								JOINT mixamorig:RightHandPinky1
								{
									OFFSET -8.076683 -0.486710 -3.806280
									CHANNELS 6 Xposition Yposition Zposition Xrotation Yrotation Zrotation
									JOINT mixamorig:RightHandPinky2
									{
										OFFSET -3.600014 -0.000015 -0.003747
										CHANNELS 6 Xposition Yposition Zposition Xrotation Yrotation Zrotation
										JOINT mixamorig:RightHandPinky3
										{
											OFFSET -2.099983 0.000000 -0.005739
											CHANNELS 6 Xposition Yposition Zposition Xrotation Yrotation Zrotation
											JOINT mixamorig:RightHandPinky4
											{
												OFFSET -2.115768 -0.000031 -0.003680
												CHANNELS 6 Xposition Yposition Zposition Xrotation Yrotation Zrotation
												End Site
												{
													OFFSET -211.577087 0.000000 -0.350686
												}
											}
										}
									}
								}
							}
						}
					}
				}
				JOINT mixamorig:LeftShoulder
				{
					OFFSET 4.570447 11.014725 -2.160855
					CHANNELS 6 Xposition Yposition Zposition Xrotation Yrotation Zrotation
					JOINT mixamorig:LeftArm
					{
						OFFSET 10.592371 -0.524597 -2.232119
						CHANNELS 6 Xposition Yposition Zposition Xrotation Yrotation Zrotation
						JOINT mixamorig:LeftForeArm
						{
							OFFSET 27.841532 -0.000031 0.000026
							CHANNELS 6 Xposition Yposition Zposition Xrotation Yrotation Zrotation
							JOINT mixamorig:LeftHand
							{
								OFFSET 28.328846 -0.000061 0.000022
								CHANNELS 6 Xposition Yposition Zposition Xrotation Yrotation Zrotation
								JOINT mixamorig:LeftHandThumb1
								{
									OFFSET 2.466141 -1.576172 2.681732
									CHANNELS 6 Xposition Yposition Zposition Xrotation Yrotation Zrotation
									JOINT mixamorig:LeftHandThumb2
									{
										OFFSET 3.217812 -1.872070 1.916482
										CHANNELS 6 Xposition Yposition Zposition Xrotation Yrotation Zrotation
										JOINT mixamorig:LeftHandThumb3
										{
											OFFSET 2.656029 -1.528778 1.514513
											CHANNELS 6 Xposition Yposition Zposition Xrotation Yrotation Zrotation
											JOINT mixamorig:LeftHandThumb4
											{
												OFFSET 2.020889 -1.154053 1.115139
												CHANNELS 6 Xposition Yposition Zposition Xrotation Yrotation Zrotation
												End Site
												{
													OFFSET 190.885437 -115.081749 130.048782
												}
											}
										}
									}
								}
								JOINT mixamorig:LeftHandIndex1
								{
									OFFSET 9.109314 -0.518021 2.259871
									CHANNELS 6 Xposition Yposition Zposition Xrotation Yrotation Zrotation
									JOINT mixamorig:LeftHandIndex2
									{
										OFFSET 3.699989 0.000000 -0.000322
										CHANNELS 6 Xposition Yposition Zposition Xrotation Yrotation Zrotation
										JOINT mixamorig:LeftHandIndex3
										{
											OFFSET 2.850006 0.000000 0.000352
											CHANNELS 6 Xposition Yposition Zposition Xrotation Yrotation Zrotation
											JOINT mixamorig:LeftHandIndex4
											{
												OFFSET 2.774864 -0.000031 -0.000027
												CHANNELS 6 Xposition Yposition Zposition Xrotation Yrotation Zrotation
												End Site
												{
													OFFSET 277.486267 0.000000 -0.009857
												}
											}
										}
									}
								}
								JOINT mixamorig:LeftHandMiddle1
								{
									OFFSET 9.533394 0.000061 0.000044
									CHANNELS 6 Xposition Yposition Zposition Xrotation Yrotation Zrotation
									JOINT mixamorig:LeftHandMiddle2
									{
										OFFSET 3.699989 -0.000015 -0.000231
										CHANNELS 6 Xposition Yposition Zposition Xrotation Yrotation Zrotation
										JOINT mixamorig:LeftHandMiddle3
										{
											OFFSET 2.949997 -0.000015 -0.000059
											CHANNELS 6 Xposition Yposition Zposition Xrotation Yrotation Zrotation
											JOINT mixamorig:LeftHandMiddle4
											{
												OFFSET 2.952896 0.000031 0.000063
												CHANNELS 6 Xposition Yposition Zposition Xrotation Yrotation Zrotation
												End Site
												{
													OFFSET 295.289337 0.000000 0.022810
												}
											}
										}
									}
								}
								JOINT mixamorig:LeftHandRing1
								{
									OFFSET 9.104523 -0.042999 -1.865074
									CHANNELS 6 Xposition Yposition Zposition Xrotation Yrotation Zrotation
									JOINT mixamorig:LeftHandRing2
									{
										OFFSET 3.150009 -0.000031 0.000043
										CHANNELS 6 Xposition Yposition Zposition Xrotation Yrotation Zrotation
										JOINT mixamorig:LeftHandRing3
										{
											OFFSET 2.949982 -0.000015 0.000040
											CHANNELS 6 Xposition Yposition Zposition Xrotation Yrotation Zrotation
											JOINT mixamorig:LeftHandRing4
											{
												OFFSET 2.644348 0.000000 0.000057
												CHANNELS 6 Xposition Yposition Zposition Xrotation Yrotation Zrotation
												End Site
												{
													OFFSET 264.434631 0.000000 0.012105
												}
											}
										}
									}
								}
								JOINT mixamorig:LeftHandPinky1
								{
									OFFSET 8.077789 -0.486847 -3.806259
									CHANNELS 6 Xposition Yposition Zposition Xrotation Yrotation Zrotation
									JOINT mixamorig:LeftHandPinky2
									{
										OFFSET 3.599953 0.000031 0.014727
										CHANNELS 6 Xposition Yposition Zposition Xrotation Yrotation Zrotation
										JOINT mixamorig:LeftHandPinky3
										{
											OFFSET 2.100021 0.000015 0.007705
											CHANNELS 6 Xposition Yposition Zposition Xrotation Yrotation Zrotation
											JOINT mixamorig:LeftHandPinky4
											{
												OFFSET 2.125504 0.000031 0.007517
												CHANNELS 6 Xposition Yposition Zposition Xrotation Yrotation Zrotation
												End Site
												{
													OFFSET 212.550781 0.000000 0.625752
												}
											}
										}
									}
								}
							}
						}
					}
				}
			}
		}
	}
	JOINT mixamorig:RightUpLeg
	{
		OFFSET -8.207787 -6.751648 -1.599560
		CHANNELS 6 Xposition Yposition Zposition Xrotation Yrotation Zrotation
		JOINT mixamorig:RightLeg
		{
			OFFSET -0.000002 -44.370117 0.345942
			CHANNELS 6 Xposition Yposition Zposition Xrotation Yrotation Zrotation
			JOINT mixamorig:RightFoot
			{
				OFFSET 0.000003 -44.423679 -3.043532
				CHANNELS 6 Xposition Yposition Zposition Xrotation Yrotation Zrotation
				JOINT mixamorig:RightToeBase
				{
					OFFSET -0.000002 -8.728671 10.710558
					CHANNELS 6 Xposition Yposition Zposition Xrotation Yrotation Zrotation
					JOINT mixamorig:RightToe_End
					{
						OFFSET -0.000001 -0.000679 9.278119
						CHANNELS 6 Xposition Yposition Zposition Xrotation Yrotation Zrotation
						End Site
						{
							OFFSET 0.000000 -0.067690 927.812134
						}
					}
				}
			}
		}
	}
	JOINT mixamorig:LeftUpLeg
	{
		OFFSET 8.207793 -6.751686 -1.599556
		CHANNELS 6 Xposition Yposition Zposition Xrotation Yrotation Zrotation
		JOINT mixamorig:LeftLeg
		{
			OFFSET -0.000004 -44.370014 0.346954
			CHANNELS 6 Xposition Yposition Zposition Xrotation Yrotation Zrotation
			JOINT mixamorig:LeftFoot
			{
				OFFSET -0.000001 -44.423672 -3.044401
				CHANNELS 6 Xposition Yposition Zposition Xrotation Yrotation Zrotation
				JOINT mixamorig:LeftToeBase
				{
					OFFSET -0.000002 -8.728669 10.710558
					CHANNELS 6 Xposition Yposition Zposition Xrotation Yrotation Zrotation
					JOINT mixamorig:LeftToe_End
					{
						OFFSET -0.000003 -0.000679 9.278133
						CHANNELS 6 Xposition Yposition Zposition Xrotation Yrotation Zrotation
						End Site
						{
							OFFSET 0.000000 -0.068021 927.813477
						}
					}
				}
			}
		}
	}
}
MOTION
Frames: 3
Frame Time: 0.033333
0.000006 104.270477 1.554256 0.000010 0.000003 -0.000113 -0.000005 10.181587 0.131522 0.000001 -0.000003 0.000084 -0.000000 9.893967 -1.470711 0.000001 0.000000 -0.000000 -0.000000 9.220802 -1.370642 0.000000 -0.000000 -0.000000 0.000001 16.740433 -2.049030 0.000000 -0.000000 -0.000000 0.000000 9.617859 1.685014 0.000000 0.000000 0.000000 0.000002 22.037384 7.501101 0.000000 -0.000000 0.000000 -4.569968 11.014880 -2.160881 0.000008 0.000001 -0.000038 -10.592881 -0.524753 -2.231929 72.876595 25.667142 -19.094651 -27.841530 -0.000000 0.000542 -60.368169 108.480124 77.852552 -28.328831 0.000021 0.000020 -0.000319 -0.000045 0.000007 -2.464417 -1.573862 2.682371 -38.536211 -156.417657 10.601352 -3.215268 -1.872566 1.924635 153.701441 32.886886 12.713502 -2.654952 -1.527892 1.513079 146.174641 27.120347 -36.761284 -2.018823 -1.151997 1.108052 -0.000001 -0.000001 0.000004 -9.108388 -0.517548 2.260139 101.773445 15.910635 -19.561834 -3.700067 0.000325 0.001504 97.881303 12.277179 -14.050084 -2.850073 0.000372 -0.000255 97.521386 9.058474 -10.325606 -2.772175 -0.000001 -0.000020 -0.000001 0.000001 0.000001 -9.532589 0.000269 0.000273 99.495987 14.744674 -17.543597 -3.700065 0.000340 0.003990 98.246875 10.765468 -12.318508 -2.950071 0.000343 -0.001768 99.007765 9.969851 -11.655744 -2.946623 0.000001 -0.000155 -0.000000 -0.000001 -0.000001 -9.103696 -0.042745 -1.864869 96.010180 16.384618 -18.122324 -3.379329 0.000321 -0.000781 98.873723 10.575606 -12.362566 -2.889764 0.000339 0.000658 103.117169 7.379499 -9.347015 -2.638823 -0.000028 0.000941 0.000001 -0.000000 -0.000001 -8.076747 -0.486397 -3.806039 80.760034 18.254258 -15.430203 -3.600054 0.000291 -0.003522 89.303337 9.996733 -9.518803 -2.100004 0.000312 -0.005455 94.625133 5.624014 -5.858813 -2.115785 -0.000013 -0.003680 -0.000004 0.000004 -0.000006 4.570446 11.014691 -2.160851 -0.000018 0.000010 -0.000021 10.592410 -0.524466 -2.232356 74.560360 -16.789163 12.819350 27.841820 0.000076 -0.000201 99.981593 -71.181247 80.904526 28.328850 -0.000029 0.000025 0.000019 -0.000089 -0.000001 2.466087 -1.576178 2.681896 -24.249470 151.790846 -36.129717 3.217754 -1.871692 1.916365 154.208842 -33.490449 -15.809564 2.656107 -1.528641 1.514467 141.404259 -27.528109 44.318143 2.020891 -1.154071 1.115152 0.000002 0.000002 0.000003 9.109381 -0.517844 2.259725 85.803746 -14.781236 13.735463 3.700050 0.000157 -0.000457 84.197067 -15.763047 14.274528 2.850060 0.000177 0.000209 81.853144 -14.087264 12.228319 2.774886 -0.000032 -0.000028 -0.000000 -0.000001 0.000001 9.533468 0.000211 -0.000105 85.922209 -14.004090 13.041762 3.700046 0.000176 -0.000377 88.271056 -14.640341 14.206939 2.950067 0.000163 -0.000179 87.882070 -17.603337 16.976831 2.952873 -0.000032 0.000063 -0.000003 -0.000000 0.000000 9.104589 -0.042839 -1.865243 84.628475 -13.362152 12.175855 3.150057 0.000191 -0.000090 90.691921 -13.192101 13.352813 2.950045 0.000171 -0.000073 91.887191 -15.092234 15.593479 2.644328 0.000029 0.000056 -0.000005 -0.000001 -0.000001 8.077841 -0.486736 -3.806406 73.098932 -15.851875 12.224129 3.599989 0.000159 0.014578 76.190391 -13.426365 10.948070 2.100061 0.000163 0.007542 80.374340 -12.804000 11.241180 2.125507 0.000000 0.007512 -0.000000 0.000000 -0.000001 -8.207786 -6.751667 -1.599560 -0.077001 -0.000003 0.000080 -0.000002 -44.370110 0.345938 0.153719 -0.000000 -0.000000 0.000000 -44.423679 -3.043532 -0.076700 0.000000 -0.000002 -0.000006 -8.728667 10.710559 -0.000009 -0.000000 -0.000000 -0.000001 -0.000679 9.278123 0.000000 -0.000000 -0.000000 8.207792 -6.751710 -1.599556 -0.074518 -0.000003 0.000081 -0.000002 -44.370014 0.346960 0.148822 0.000002 0.000000 -0.000001 -44.423664 -3.044403 -0.074314 0.000000 -0.000002 -0.000004 -8.728671 10.710558 0.000007 -0.000000 -0.000000 0.000000 -0.000680 9.278137 -0.000000 0.000000 -0.000001 
0.000006 104.270477 1.554256 0.000010 0.000003 -0.000113 -0.000005 10.181587 0.131522 0.000001 -0.000003 0.000084 -0.000000 9.893967 -1.470711 0.000001 0.000000 -0.000000 -0.000000 9.220802 -1.370642 0.000000 -0.000000 -0.000000 0.000001 16.740433 -2.049030 0.000000 -0.000000 -0.000000 0.000000 9.617859 1.685014 0.000000 0.000000 0.000000 0.000002 22.037384 7.501101 0.000000 -0.000000 0.000000 -4.569968 11.014880 -2.160881 0.000008 0.000001 -0.000038 -10.592877 -0.524778 -2.231896 73.318707 31.566208 -23.760326 -27.841520 0.000017 0.000532 -57.958205 106.700915 73.327238 -28.328815 0.000006 0.000030 -0.000321 -0.000042 0.000008 -2.464412 -1.573877 2.682347 -38.342291 -153.940374 10.047691 -3.215266 -1.872532 1.924634 151.083443 32.685785 14.951424 -2.654953 -1.527882 1.513058 145.261881 27.785437 -30.659865 -2.018833 -1.151996 1.108050 -0.000004 0.000002 0.000002 -9.108378 -0.517558 2.260133 100.933168 15.060731 -18.255310 -3.700068 0.000311 0.001500 97.346998 11.920613 -13.515742 -2.850084 0.000356 -0.000265 95.397341 9.234768 -10.142856 -2.772171 -0.000000 -0.000018 -0.000001 -0.000001 -0.000000 -9.532589 0.000274 0.000256 97.687073 16.011061 -18.443015 -3.700073 0.000332 0.003994 98.940481 12.231125 -14.175196 -2.950060 0.000347 -0.001779 100.096682 11.228493 -13.377949 -2.946619 0.000001 -0.000153 0.000001 0.000001 0.000000 -9.103703 -0.042759 -1.864862 95.187968 17.854220 -19.468510 -3.379336 0.000313 -0.000780 98.930516 11.903821 -13.922963 -2.889758 0.000346 0.000680 104.868047 8.613937 -11.245242 -2.638810 -0.000013 0.000940 0.000000 -0.000000 0.000000 -8.076768 -0.486401 -3.806056 79.053832 19.847572 -16.299937 -3.600066 0.000262 -0.003510 87.208771 12.264920 -11.331049 -2.100031 0.000309 -0.005468 93.585251 7.253383 -7.482017 -2.115770 -0.000055 -0.003680 -0.000001 0.000003 -0.000006 4.570446 11.014691 -2.160851 -0.000018 0.000010 -0.000021 10.592393 -0.524481 -2.232355 74.235352 -8.904621 6.744732 27.841825 0.000036 -0.000223 101.501167 -72.713586 84.035349 28.328833 -0.000029 0.000021 0.000019 -0.000089 -0.000000 2.466238 -1.576098 2.681858 -3.456863 162.661911 -80.531455 3.217838 -1.871754 1.916387 165.637046 -27.722804 17.341567 2.656108 -1.528665 1.514487 144.091843 -25.885973 56.301734 2.020883 -1.154069 1.115152 0.000000 0.000002 0.000003 9.109390 -0.517861 2.259745 86.303422 -19.850321 18.619639 3.700037 0.000165 -0.000469 83.887277 -13.600462 12.248090 2.850034 0.000206 0.000218 82.887993 -10.671902 9.428001 2.774866 -0.000031 -0.000024 -0.000001 0.000001 -0.000001 9.533466 0.000224 -0.000077 86.287269 -18.169215 17.037232 3.700044 0.000191 -0.000381 88.710866 -11.034277 10.787647 2.950054 0.000195 -0.000202 89.567481 -11.093645 11.013600 2.952859 -0.000017 0.000065 -0.000002 0.000003 -0.000000 9.104593 -0.042840 -1.865198 85.449696 -17.843502 16.501201 3.150064 0.000220 -0.000083 89.947608 -11.469550 11.460943 2.950003 0.000183 -0.000099 91.444034 -9.872795 10.125279 2.644319 0.000045 0.000057 -0.000001 0.000000 -0.000000 8.077853 -0.486721 -3.806382 76.595818 -19.390591 15.850542 3.600002 0.000177 0.014577 76.974067 -15.651356 12.891807 2.100030 0.000179 0.007545 79.380117 -11.332171 9.813347 2.125499 -0.000003 0.007520 -0.000001 0.000001 -0.000001 -8.207786 -6.751667 -1.599560 -0.077001 -0.000003 0.000080 -0.000002 -44.370110 0.345938 0.153719 -0.000000 -0.000000 0.000000 -44.423679 -3.043532 -0.076700 0.000000 -0.000002 -0.000006 -8.728667 10.710559 -0.000009 -0.000000 -0.000000 -0.000001 -0.000679 9.278123 0.000000 -0.000000 -0.000000 8.207792 -6.751710 -1.599556 -0.074518 -0.000003 0.000081 -0.000002 -44.370014 0.346960 0.148822 0.000002 0.000000 -0.000001 -44.423664 -3.044403 -0.074314 0.000000 -0.000002 -0.000004 -8.728671 10.710558 0.000007 -0.000000 -0.000000 0.000000 -0.000680 9.278137 -0.000000 0.000000 -0.000001 
0.000006 104.270477 1.554256 0.000010 0.000003 -0.000113 -0.000005 10.181587 0.131522 0.000001 -0.000003 0.000084 -0.000000 9.893967 -1.470711 0.000001 0.000000 -0.000000 -0.000000 9.220802 -1.370642 0.000000 -0.000000 -0.000000 0.000001 16.740433 -2.049030 0.000000 -0.000000 -0.000000 0.000000 9.617859 1.685014 0.000000 0.000000 0.000000 0.000002 22.037384 7.501101 0.000000 -0.000000 0.000000 -4.569968 11.014880 -2.160881 0.000008 0.000001 -0.000038 -10.592855 -0.524806 -2.231831 73.629214 43.687932 -33.402962 -27.841532 0.000000 0.000546 -55.058657 102.811607 66.293352 -28.328831 0.000004 0.000029 -0.000322 -0.000048 0.000011 -2.464405 -1.573908 2.682360 -33.670425 -151.311052 18.423891 -3.215288 -1.872569 1.924647 151.494320 31.226614 3.939076 -2.654968 -1.527861 1.513064 140.920067 28.373162 -31.500423 -2.018815 -1.151982 1.108066 -0.000001 0.000000 0.000004 -9.108358 -0.517545 2.260117 99.500037 14.073532 -16.645272 -3.700062 0.000340 0.001504 98.007942 11.542500 -13.239050 -2.850070 0.000374 -0.000265 96.545844 9.263745 -10.380685 -2.772173 -0.000015 -0.000022 0.000001 0.000001 0.000001 -9.532578 0.000270 0.000241 96.120296 14.345844 -16.101947 -3.700058 0.000334 0.004000 97.380070 11.784117 -13.287850 -2.950053 0.000341 -0.001793 97.736544 11.493242 -13.138443 -2.946617 -0.000015 -0.000156 -0.000000 -0.000003 0.000000 -9.103685 -0.042758 -1.864882 92.894855 16.357302 -17.146449 -3.379354 0.000289 -0.000775 95.930041 12.545136 -13.922797 -2.889774 0.000346 0.000675 101.232385 9.869706 -12.065745 -2.638824 -0.000016 0.000936 -0.000002 -0.000002 0.000000 -8.076755 -0.486396 -3.806052 78.256503 18.902272 -15.297836 -3.600070 0.000257 -0.003529 83.189949 13.081620 -11.288538 -2.100039 0.000309 -0.005499 88.839335 8.334649 -7.945069 -2.115769 -0.000055 -0.003680 0.000006 -0.000001 -0.000003 4.570446 11.014691 -2.160851 -0.000018 0.000010 -0.000021 10.592425 -0.524465 -2.232386 73.355856 -21.817103 16.336638 27.841806 0.000064 -0.000210 103.516940 -74.850042 88.314845 28.328836 -0.000028 0.000019 0.000022 -0.000089 0.000001 2.466212 -1.576110 2.681855 -2.767297 162.073695 -80.832106 3.217844 -1.871772 1.916391 165.342009 -26.800718 20.993428 2.656105 -1.528647 1.514486 142.326116 -26.526602 56.356799 2.020891 -1.154066 1.115144 0.000000 0.000000 0.000003 9.109363 -0.517864 2.259741 85.945035 -19.022171 17.730947 3.700038 0.000160 -0.000474 84.057827 -12.894490 11.646512 2.850049 0.000197 0.000201 82.922164 -10.043337 8.877300 2.774894 -0.000032 -0.000021 -0.000003 -0.000002 0.000000 9.533445 0.000201 -0.000077 86.203927 -17.929300 16.787579 3.700030 0.000179 -0.000389 88.834103 -10.748338 10.530477 2.950053 0.000185 -0.000203 89.578593 -10.633396 10.558766 2.952859 -0.000031 0.000065 0.000004 0.000002 -0.000000 9.104575 -0.042860 -1.865215 85.563248 -17.536190 16.248226 3.150051 0.000209 -0.000100 90.404917 -11.483935 11.566653 2.950026 0.000192 -0.000076 91.991269 -9.725010 10.069050 2.644309 0.000032 0.000055 0.000005 -0.000000 0.000000 8.077839 -0.486732 -3.806413 77.722915 -19.267690 16.068223 3.600002 0.000173 0.014574 77.899489 -15.892785 13.302290 2.100047 0.000179 0.007527 80.052317 -11.433121 10.015876 2.125505 -0.000001 0.007519 0.000000 -0.000001 -0.000001 -8.207786 -6.751667 -1.599560 -0.077001 -0.000003 0.000080 -0.000002 -44.370110 0.345938 0.153719 -0.000000 -0.000000 0.000000 -44.423679 -3.043532 -0.076700 0.000000 -0.000002 -0.000006 -8.728667 10.710559 -0.000009 -0.000000 -0.000000 -0.000001 -0.000679 9.278123 0.000000 -0.000000 -0.000000 8.207792 -6.751710 -1.599556 -0.074518 -0.000003 0.000081 -0.000002 -44.370014 0.346960 0.148822 0.000002 0.000000 -0.000001 -44.423664 -3.044403 -0.074314 0.000000 -0.000002 -0.000004 -8.728671 10.710558 0.000007 -0.000000 -0.000000 0.000000 -0.000680 9.278137 -0.000000 0.000000 -0.000001 
